<?xml version="1.0" standalone="no"?>
<!DOCTYPE svg PUBLIC "-//W3C//DTD SVG 20010904//EN"
 "http://www.w3.org/TR/2001/REC-SVG-20010904/DTD/svg10.dtd">
<svg version="1.0" xmlns="http://www.w3.org/2000/svg"
 width="512.000000pt" height="512.000000pt" viewBox="0 0 512.000000 512.000000"
 preserveAspectRatio="xMidYMid meet">
<metadata>
Created by potrace 1.11, written by Peter Selinger 2001-2013
</metadata>
<g transform="translate(0.000000,512.000000) scale(0.100000,-0.100000)"
fill="#000000" stroke="none">
<path d="M2100 4065 c-71 -15 -116 -41 -143 -85 l-22 -35 -3 -1208 c-2 -870 1
-1220 9 -1250 15 -58 72 -110 135 -124 59 -14 235 -10 286 6 48 15 96 66 110
116 8 28 11 384 11 1240 0 1135 -1 1202 -18 1238 -34 73 -108 107 -240 111
-38 2 -95 -3 -125 -9z"/>
<path d="M869 3726 c-3 -3 -20 -8 -39 -11 -49 -9 -95 -40 -122 -83 -21 -33
-23 -51 -26 -184 -2 -82 -7 -148 -10 -149 -4 0 -32 -2 -62 -4 -71 -4 -95 -10
-123 -31 -59 -45 -88 -125 -82 -227 6 -107 19 -148 64 -194 33 -33 76 -45 161
-47 44 -1 45 -2 47 -36 2 -19 4 -237 6 -485 4 -430 5 -454 26 -535 41 -151 98
-241 196 -308 33 -22 78 -48 100 -56 105 -41 295 -58 390 -36 22 5 55 11 72
15 41 7 112 35 139 55 62 47 93 130 89 247 -4 134 -41 198 -130 223 -43 12
-52 11 -124 -14 -77 -25 -145 -33 -167 -18 -5 4 -17 23 -25 42 -11 29 -14 114
-14 470 l0 434 150 1 c168 1 207 10 253 58 76 78 79 299 5 383 -41 47 -81 58
-213 61 -69 1 -142 2 -162 2 l-37 1 0 140 c1 122 -2 146 -20 183 -36 74 -116
107 -259 107 -43 0 -81 -2 -83 -4z"/>
<path d="M3710 3323 c-109 -19 -238 -69 -302 -116 l-27 -20 -23 28 c-13 16
-25 32 -28 35 -9 13 -64 37 -100 45 -57 13 -152 13 -205 0 -90 -21 -126 -51
-146 -120 -12 -43 -16 -2248 -4 -2313 3 -19 15 -46 26 -61 19 -26 83 -70 102
-69 4 0 26 -4 50 -8 98 -17 253 3 297 39 9 6 27 28 40 47 25 35 25 35 28 321
3 278 4 287 23 282 10 -3 19 -9 19 -14 0 -5 6 -9 13 -9 8 0 27 -7 43 -15 50
-24 174 -47 262 -46 119 0 262 31 354 77 58 30 172 115 206 155 14 17 31 36
37 43 6 6 26 36 46 66 83 128 127 265 157 480 14 109 5 461 -13 491 -2 3 -7
21 -10 40 -9 55 -45 169 -71 227 -68 155 -215 304 -359 365 -101 43 -313 69
-415 50z m149 -524 c91 -53 144 -166 158 -332 18 -228 -1 -370 -65 -487 -52
-96 -117 -140 -204 -140 -88 1 -144 32 -260 147 l-68 67 0 272 0 272 77 76
c42 41 84 78 95 81 10 4 18 10 18 15 0 4 8 10 18 14 9 3 33 12 52 20 43 17
147 14 179 -5z"/>
</g>
</svg>
